<?xml version="1.0" encoding="UTF-8"?>
<svg xmlns="http://www.w3.org/2000/svg" width="350" height="37" viewBox="0 0 350 37" fill="none">
  <g clip-path="url(#clip0_1944_4664)">
    <path d="M57.2486 8.94629H46.6401V36.0452H57.2486V8.94629Z" fill="white"></path>
    <path d="M83.5899 8.07324C78.0356 8.07324 74.5165 10.4103 72.4786 13.9883V8.94715H61.8701V36.0458H72.4786V23.3106C72.4786 17.9991 74.9457 15.6165 79.2096 15.6165C82.9077 15.6165 84.5765 17.5664 84.5765 21.1445V36.0458H95.1846V19.5704C95.1846 12.4711 91.603 8.0761 83.5899 8.0761V8.07324Z" fill="white"></path>
    <path d="M120.719 8.07324C115.164 8.07324 111.645 10.4103 109.607 13.9883V8.94715H98.9989V36.0458H109.607V23.3106C109.607 17.9991 112.075 15.6165 116.338 15.6165C120.037 15.6165 121.705 17.5664 121.705 21.1445V36.0458H132.313V19.5704C132.313 12.4711 128.732 8.0761 120.719 8.0761V8.07324Z" fill="white"></path>
    <path d="M152.419 8.07324C139.281 8.07324 134.71 15.2266 134.71 22.4994C134.71 29.7723 139.278 36.917 152.419 36.917C165.56 36.917 170.065 29.7637 170.065 22.4994C170.065 15.2351 165.497 8.07324 152.419 8.07324ZM152.419 29.6527C147.356 29.6527 145.318 27.9192 145.318 22.4994C145.318 17.0796 147.356 15.3376 152.419 15.3376C157.481 15.3376 159.445 17.0711 159.445 22.4994C159.445 27.9277 157.416 29.6527 152.419 29.6527Z" fill="white"></path>
    <path d="M194.611 8.94629L187.206 28.9971L179.801 8.94629H169.005L176.564 28.943C177.371 31.0808 178.798 32.8513 180.595 34.0923C182.388 35.3334 184.551 36.0422 186.842 36.0422C191.402 36.0422 195.495 33.21 197.109 28.943L204.668 8.94629H194.617H194.611Z" fill="white"></path>
    <path d="M234.946 28.5653V17.7799C234.946 11.5973 230.199 8.07324 220.389 8.07324C210.58 8.07324 204.972 12.1979 204.656 17.9421H214.96C215.023 15.5596 216.808 14.2559 220.514 14.2559C224.221 14.2559 225.199 15.2266 225.199 16.8548C225.199 18.2666 224.4 18.9213 221.617 19.354L214.591 20.4328C206.083 21.6824 204.045 24.5574 204.045 28.8898C204.045 33.6634 208.11 36.7549 214.287 36.7549C220.463 36.7549 224.338 34.3637 225.881 30.4099C225.881 32.6301 226.06 34.472 226.376 36.0458H235.503C235.199 33.8258 234.946 31.4431 234.946 28.5682V28.5653ZM225.199 23.3078C225.199 28.1867 222.3 30.6775 218.289 30.6775C216.197 30.6775 214.466 29.7068 214.466 27.811C214.466 25.9152 215.58 25.0413 218.605 24.3952L220.327 24.0081C222.302 23.5754 223.656 23.2537 225.199 22.2745V23.3078Z" fill="white"></path>
    <path d="M261.035 15.938V8.94697H252.644V2.38574H247.278L242.897 9.16329L236.607 11.5999V15.9408H242.036V25.3685C242.036 32.3596 244.998 36.0456 254.429 36.0456H260.049V28.6762H252.644V15.9408H261.035V15.938Z" fill="white"></path>
    <path d="M275.1 8.94629H264.483V36.0452H275.1V8.94629Z" fill="white"></path>
    <path d="M296.004 8.07324C282.866 8.07324 278.306 15.2266 278.306 22.4994C278.306 29.7723 282.866 36.917 296.004 36.917C309.142 36.917 313.65 29.7637 313.65 22.4994C313.65 15.2351 309.082 8.07324 296.004 8.07324ZM296.004 29.6527C290.95 29.6527 288.915 27.9192 288.915 22.4994C288.915 17.0796 290.953 15.3376 296.004 15.3376C301.055 15.3376 303.039 17.0711 303.039 22.4994C303.039 27.9277 301.001 29.6527 296.004 29.6527Z" fill="white"></path>
    <path d="M338.375 8.07324C332.828 8.07324 329.31 10.4103 327.271 13.9883V8.94715H316.663V36.0458H327.271V23.3106C327.271 17.9991 329.739 15.6165 333.994 15.6165C337.7 15.6165 339.362 17.5664 339.362 21.1445V36.0458H349.976V19.5704C349.976 12.4711 346.396 8.0761 338.371 8.0761L338.375 8.07324Z" fill="white"></path>
    <path d="M44.6703 36.0397H33.7465L22.2769 6.72347L15.2587 24.6451L15.1507 24.9156C15.1763 24.9526 15.1962 24.9952 15.2217 25.0408C15.813 26.1737 16.1541 27.4575 16.1541 28.8324C16.1541 32.2653 13.9995 35.2058 10.992 36.3727C10.0768 36.7228 9.09893 36.9109 8.0671 36.9109C5.25867 36.9109 2.78852 35.482 1.33599 33.2986C0.491757 32.0233 0 30.4862 0 28.8324C0 25.1661 2.41331 22.0833 5.75327 21.0927L5.86129 20.8137L10.9153 7.79946C12.7459 3.09132 17.2684 0 22.3025 0C27.3366 0 31.8705 3.09132 33.6924 7.80229L44.6703 36.0427V36.0397Z" fill="white"></path>
  </g>
  <defs>
    <clipPath id="clip0_1944_4664">
      <rect width="350" height="37" fill="white"></rect>
    </clipPath>
  </defs>
</svg>
